<svg xmlns="http://www.w3.org/2000/svg" width="378" height="179" viewBox="0 0 378 179">
  <defs>
    <style>
      .cls-1 {
        fill: #161616;
        font-size: 56px;
        font-family: SegoeUIBlack-Italic, Segoe UI;
        font-weight: bolder;
        font-style: italic;
      }

      .cls-2, .cls-3 {
        fill: #fff;
      }

      .cls-3 {
        stroke: #060303;
        stroke-width: 10px;
      }

      .cls-4, .cls-5 {
        stroke: none;
      }

      .cls-5 {
        fill: #060303;
      }

      .cls-6 {
        fill: none;
      }
    </style>
  </defs>
  <g id="Group_11" data-name="Group 11" transform="translate(66 -1664)">
    <text id="Besiqn" class="cls-1" transform="translate(128 1797)"><tspan x="0" y="0">Besiqn</tspan></text>
    <g id="Group_9" data-name="Group 9">
      <g id="Polygon_1" data-name="Polygon 1" class="cls-2" transform="translate(-11 1719)">
        <path class="cls-4" d="M 93.70269775390625 120.0000076293945 L 48.29731750488281 120.0000076293945 C 46.03899002075195 120.0000076293945 43.824462890625 119.7012786865234 41.71527862548828 119.1121292114258 C 39.70131683349609 118.5496063232422 37.7717170715332 117.7196807861328 35.98007965087891 116.6454620361328 C 32.51522445678711 114.5680236816406 29.59471702575684 111.5913543701172 27.53424453735352 108.037239074707 C 25.4737720489502 104.4831314086914 24.34175300598145 100.4695663452148 24.26058959960938 96.43048095703125 C 24.21862602233887 94.34189605712891 24.45720672607422 92.25498962402344 24.96975326538086 90.22771453857422 C 25.50653457641602 88.10460662841797 26.3476619720459 86.03438568115234 27.46982574462891 84.07456970214844 L 50.17251586914062 44.4248046875 C 51.30157089233398 42.45294952392578 52.67022705078125 40.67031478881836 54.24046325683594 39.12644195556641 C 55.7391357421875 37.65293121337891 57.42933654785156 36.38820648193359 59.26409912109375 35.36740493774414 C 62.81184387207031 33.39355087280273 66.87006378173828 32.35022354125977 71.00000762939453 32.35022354125977 C 75.12995147705078 32.35022354125977 79.18817138671875 33.39355087280273 82.73591613769531 35.36740493774414 C 84.5706787109375 36.38820648193359 86.26087951660156 37.65293121337891 87.75955200195312 39.12644195556641 C 89.32978820800781 40.67031478881836 90.69844055175781 42.45294952392578 91.82749938964844 44.4248046875 L 114.5301895141602 84.07456970214844 C 115.6523513793945 86.03438568115234 116.4934768676758 88.10460662841797 117.0302658081055 90.22771453857422 C 117.5427856445312 92.25498962402344 117.7813873291016 94.34188079833984 117.7394256591797 96.43045806884766 C 117.6582412719727 100.4695663452148 116.5262451171875 104.4831161499023 114.4657745361328 108.037223815918 C 112.4052963256836 111.5913543701172 109.4847717285156 114.5680236816406 106.0199356079102 116.6454620361328 C 104.2282791137695 117.7196807861328 102.298698425293 118.5496063232422 100.2847366333008 119.1121292114258 C 98.17555236816406 119.7012786865234 95.96102905273438 120.0000076293945 93.70269775390625 120.0000076293945 Z"/>
        <path class="cls-5" d="M 70.99998474121094 36.35021209716797 C 63.73966979980469 36.35021209716797 57.25135040283203 40.11175537109375 53.64376068115234 46.41236877441406 L 30.94105529785156 86.06214141845703 C 27.35578155517578 92.32377624511719 27.37584686279297 99.78877258300781 30.99475860595703 106.0310516357422 C 34.61367034912109 112.2733001708984 41.08189392089844 116.0000076293945 48.29730224609375 116.0000076293945 L 93.70269012451172 116.0000076293945 C 100.918098449707 116.0000076293945 107.3863525390625 112.2732772827148 111.005256652832 106.0310287475586 C 114.6241455078125 99.78877258300781 114.6442337036133 92.32377624511719 111.0589370727539 86.06214141845703 L 88.35623168945312 46.41236877441406 C 84.74864196777344 40.11175537109375 78.26033020019531 36.35021209716797 70.99998474121094 36.35021209716797 M 71 28.3502197265625 C 80.46071624755859 28.3502197265625 89.92144012451172 33.04589080810547 95.29873657226562 42.43723297119141 L 118.0014419555664 82.08700561523438 C 128.6895141601562 100.7535095214844 115.2125091552734 124.0000076293945 93.70269012451172 124.0000076293945 L 48.29730224609375 124.0000076293945 C 26.78748321533203 124.0000076293945 13.31050109863281 100.7535095214844 23.99855041503906 82.08700561523438 L 46.70125579833984 42.43723297119141 C 52.07855224609375 33.04589080810547 61.53927612304688 28.3502197265625 71 28.3502197265625 Z"/>
      </g>
      <g id="Ellipse_4" data-name="Ellipse 4" class="cls-3" transform="translate(-66 1664)">
        <circle class="cls-4" cx="55" cy="55" r="55"/>
        <circle class="cls-6" cx="55" cy="55" r="51"/>
      </g>
      <g id="Rectangle_3" data-name="Rectangle 3" class="cls-3" transform="translate(85 1705)">
        <rect class="cls-4" width="43" height="43" rx="13"/>
        <rect class="cls-6" x="4" y="4" width="35" height="35" rx="9"/>
      </g>
      <g id="Ellipse_5" data-name="Ellipse 5" class="cls-3" transform="translate(-40 1690)">
        <circle class="cls-4" cx="29" cy="29" r="29"/>
        <circle class="cls-6" cx="29" cy="29" r="25"/>
      </g>
      <g id="Polygon_2" data-name="Polygon 2" class="cls-2" transform="translate(18 1744)">
        <path class="cls-4" d="M 42 70.00000762939453 C 38.20505905151367 70.00000762939453 34.67924880981445 69.04198455810547 31.52052879333496 67.15254211425781 C 28.57095336914062 65.38821411132812 26.08203506469727 62.85869979858398 24.32284736633301 59.83746337890625 C 22.56367111206055 56.81622695922852 21.59232902526855 53.403076171875 21.51384735107422 49.96697998046875 C 21.42980003356934 46.28725051879883 22.33697700500488 42.74802780151367 24.21017646789551 39.44761657714844 C 26.10654067993164 36.10640335083008 28.71542358398438 33.49206161499023 31.96435356140137 31.67721557617188 C 34.99546051025391 29.98403930664062 38.46572875976562 29.08907508850098 42 29.08907508850098 C 45.53427124023438 29.08907508850098 49.0045280456543 29.98403930664062 52.03563690185547 31.67721557617188 C 55.28457641601562 33.4920768737793 57.89345932006836 36.10640335083008 59.78982162475586 39.44761657714844 C 61.66302490234375 42.74802780151367 62.5702018737793 46.28725051879883 62.48615264892578 49.96697998046875 C 62.40766906738281 53.403076171875 61.43632888793945 56.81622695922852 59.67715454101562 59.83746337890625 C 57.91796493530273 62.85869979858398 55.42904663085938 65.38821411132812 52.47946929931641 67.15254211425781 C 49.32075119018555 69.04198455810547 45.79494094848633 70.00000762939453 42 70.00000762939453 Z"/>
        <path class="cls-5" d="M 42 33.08907318115234 C 36.00031661987305 33.08907318115234 30.65038299560547 36.20418930053711 27.68891525268555 41.42202377319336 C 24.76496505737305 46.57377243041992 24.79885101318359 52.70562362670898 27.77956771850586 57.82472229003906 C 30.76028442382812 62.94382095336914 36.07633209228516 66.00000762939453 42 66.00000762939453 C 47.92366790771484 66.00000762939453 53.23971557617188 62.94382095336914 56.22043609619141 57.82472229003906 C 59.20114898681641 52.70562362670898 59.23503112792969 46.57377243041992 56.31108093261719 41.42203903198242 C 53.34960174560547 36.20420455932617 47.99966812133789 33.08907318115234 42 33.08907318115234 M 41.99999237060547 25.08907318115234 C 50.29133605957031 25.08907318115234 58.58268356323242 29.21711730957031 63.2685661315918 37.47319030761719 C 72.52159881591797 53.77617263793945 60.74581909179688 74.00000762939453 42 74.00000762939453 C 23.25418472290039 74.00000762939453 11.47840118408203 53.77617263793945 20.7314338684082 37.47319030761719 C 25.41730880737305 29.21711730957031 33.70864868164062 25.08907318115234 41.99999237060547 25.08907318115234 Z"/>
      </g>
      <g id="Rectangle_4" data-name="Rectangle 4" class="cls-3" transform="translate(96 1716)">
        <rect class="cls-4" width="21" height="21" rx="10.5"/>
        <rect class="cls-6" x="4" y="4" width="13" height="13" rx="6.5"/>
      </g>
    </g>
  </g>
</svg>
